<svg xmlns="http://www.w3.org/2000/svg" viewBox="0 0 1200 1200" role="img" aria-label="Stylized realistic Mars">
  <defs>
    <clipPath id="marsClip">
      <circle cx="600" cy="600" r="560"/>
    </clipPath>
    <radialGradient id="marsBody" cx="36%" cy="28%" r="76%">
      <stop offset="0%" stop-color="#ff8c63"/>
      <stop offset="20%" stop-color="#db5b36"/>
      <stop offset="52%" stop-color="#9f2f1d"/>
      <stop offset="82%" stop-color="#65190f"/>
      <stop offset="100%" stop-color="#280705"/>
    </radialGradient>
    <radialGradient id="marsShade" cx="32%" cy="24%" r="86%">
      <stop offset="0%" stop-color="#fff0df" stop-opacity="0.12"/>
      <stop offset="46%" stop-color="#fff0df" stop-opacity="0"/>
      <stop offset="76%" stop-color="#2c0906" stop-opacity="0.12"/>
      <stop offset="100%" stop-color="#080201" stop-opacity="0.72"/>
    </radialGradient>
    <filter id="marsTexture" x="-20%" y="-20%" width="140%" height="140%">
      <feTurbulence type="fractalNoise" baseFrequency="0.012 0.02" numOctaves="4" seed="7" result="noise"/>
      <feColorMatrix in="noise" type="matrix" values="1 0 0 0 0 0 0.65 0 0 0 0 0 0.45 0 0 0 0 0 0.22 0"/>
    </filter>
  </defs>

  <g clip-path="url(#marsClip)">
    <circle cx="600" cy="600" r="560" fill="url(#marsBody)"/>
    <circle cx="600" cy="600" r="560" fill="#ffb08e" opacity="0.16" filter="url(#marsTexture)"/>

    <g fill="#6f1b10" opacity="0.54">
      <path d="M290 196 C397 156 527 170 633 228 C732 282 798 372 793 458 C788 544 714 617 607 642 C493 669 370 642 292 571 C220 505 199 413 234 327 C247 296 260 239 290 196 Z"/>
      <path d="M704 250 C777 239 872 269 927 326 C968 369 981 422 960 463 C933 516 857 539 768 525 C681 511 608 470 582 419 C563 382 589 336 651 294 C669 282 683 257 704 250 Z"/>
      <path d="M357 700 C414 674 485 670 553 684 C613 696 665 724 688 764 C711 804 700 852 659 884 C608 923 526 938 444 922 C361 906 291 868 264 813 C246 776 255 739 289 718 C309 705 333 709 357 700 Z"/>
      <path d="M738 640 C804 628 885 650 939 693 C978 724 993 766 979 801 C959 851 894 888 809 897 C711 908 617 872 584 818 C561 781 576 732 625 696 C659 671 697 647 738 640 Z"/>
      <path d="M516 430 C559 412 602 418 628 446 C650 470 651 505 629 533 C602 566 551 583 503 575 C458 568 426 539 420 500 C415 470 438 444 471 437 C486 434 501 436 516 430 Z"/>
    </g>

    <g fill="#b13c22" opacity="0.34">
      <path d="M263 260 C334 233 420 235 485 264 C540 288 574 327 572 363 C571 403 532 436 473 454 C410 474 331 476 270 453 C221 435 190 404 190 370 C190 325 215 291 263 260 Z"/>
      <path d="M702 524 C768 503 850 510 912 543 C965 570 995 615 991 654 C986 705 935 742 860 759 C778 778 683 771 623 738 C575 712 552 675 558 639 C566 593 620 552 702 524 Z"/>
      <path d="M450 856 C507 839 573 846 623 871 C667 894 686 925 680 954 C672 989 631 1015 573 1022 C512 1030 448 1020 405 992 C369 968 358 937 374 910 C388 887 415 867 450 856 Z"/>
    </g>

    <g fill="none" stroke="#f2b191" stroke-opacity="0.24" stroke-width="6">
      <circle cx="302" cy="381" r="28"/>
      <circle cx="368" cy="456" r="16"/>
      <circle cx="448" cy="308" r="24"/>
      <circle cx="487" cy="486" r="46"/>
      <circle cx="546" cy="548" r="18"/>
      <circle cx="632" cy="402" r="24"/>
      <circle cx="702" cy="474" r="28"/>
      <circle cx="792" cy="374" r="18"/>
      <circle cx="852" cy="604" r="34"/>
      <circle cx="757" cy="731" r="22"/>
      <circle cx="641" cy="778" r="38"/>
      <circle cx="511" cy="726" r="20"/>
      <circle cx="414" cy="813" r="26"/>
      <circle cx="334" cy="720" r="18"/>
      <circle cx="874" cy="490" r="16"/>
      <circle cx="938" cy="707" r="24"/>
      <circle cx="600" cy="244" r="18"/>
      <circle cx="566" cy="338" r="14"/>
      <circle cx="263" cy="535" r="22"/>
      <circle cx="209" cy="614" r="16"/>
    </g>

    <g fill="#3a0d09" opacity="0.38">
      <path d="M328 300 C410 272 516 273 596 311 C650 337 680 378 673 410 C663 455 604 482 523 488 C440 494 356 477 296 441 C248 412 224 372 236 342 C247 320 277 314 328 300 Z"/>
      <path d="M564 414 C611 401 666 406 708 426 C742 442 760 469 754 496 C745 533 699 562 640 569 C576 578 514 566 476 538 C448 517 438 489 449 466 C465 434 522 426 564 414 Z"/>
      <path d="M392 638 C462 619 548 622 625 648 C691 671 736 710 735 748 C733 791 683 831 607 851 C527 872 436 870 365 842 C308 819 275 782 279 748 C284 704 327 658 392 638 Z"/>
    </g>

    <path d="M232 414 C322 391 410 388 507 397 C566 402 611 415 673 415 C727 415 792 399 869 370" fill="none" stroke="#51130c" stroke-opacity="0.46" stroke-width="20" stroke-linecap="round"/>
    <path d="M448 952 C521 924 607 912 687 914 C763 916 838 932 907 970" fill="none" stroke="#ffcfbd" stroke-opacity="0.16" stroke-width="14" stroke-linecap="round"/>
    <ellipse cx="568" cy="122" rx="214" ry="72" fill="#ffd7c7" opacity="0.18"/>

    <circle cx="600" cy="600" r="560" fill="url(#marsShade)"/>
  </g>

  <circle cx="600" cy="600" r="564" fill="none" stroke="#ffae7d" stroke-opacity="0.42" stroke-width="6"/>
  <circle cx="600" cy="600" r="576" fill="none" stroke="#ff7440" stroke-opacity="0.14" stroke-width="20"/>
</svg>
